<svg xmlns="http://www.w3.org/2000/svg" width="509px" height="249px" xmlns:xlink="http://www.w3.org/1999/xlink" version="1.1"><defs/><g transform="translate(0.5,0.5)"><ellipse cx="32" cy="10" rx="7.5" ry="7.5" fill="#ffffff" stroke="#000000" pointer-events="none"/><path d="M 32 17 L 32 42 M 32 22 L 17 22 M 32 22 L 47 22 M 32 42 L 17 62 M 32 42 L 47 62" fill="none" stroke="#000000" stroke-miterlimit="10" pointer-events="none"/><ellipse cx="32" cy="195" rx="7.5" ry="7.5" fill="#ffffff" stroke="#000000" pointer-events="none"/><path d="M 32 202 L 32 227 M 32 207 L 17 207 M 32 207 L 47 207 M 32 227 L 17 247 M 32 227 L 47 247" fill="none" stroke="#000000" stroke-miterlimit="10" pointer-events="none"/><ellipse cx="77" cy="50" rx="7.5" ry="7.5" fill="#ffffff" stroke="#000000" pointer-events="none"/><path d="M 77 57 L 77 82 M 77 62 L 62 62 M 77 62 L 92 62 M 77 82 L 62 102 M 77 82 L 92 102" fill="none" stroke="#000000" stroke-miterlimit="10" pointer-events="none"/><ellipse cx="17" cy="125" rx="7.5" ry="7.5" fill="#ffffff" stroke="#000000" pointer-events="none"/><path d="M 17 132 L 17 157 M 17 137 L 2 137 M 17 137 L 32 137 M 17 157 L 2 177 M 17 157 L 32 177" fill="none" stroke="#000000" stroke-miterlimit="10" pointer-events="none"/><path d="M 165 35 C 151 35 147 47 158 50 C 147 55 160 67 169 62 C 175 72 196 72 203 62 C 217 62 217 52 208 47 C 217 37 203 27 191 32 C 182 25 168 25 165 35 Z" fill="#ffffff" stroke="#000000" stroke-miterlimit="10" pointer-events="none"/><path d="M 385 75 C 371 75 367 87 378 90 C 367 95 380 107 389 102 C 395 112 416 112 423 102 C 437 102 437 92 428 87 C 437 77 423 67 411 72 C 402 65 388 65 385 75 Z" fill="#ffffff" stroke="#000000" stroke-miterlimit="10" pointer-events="none"/><path d="M 330 180 C 316 180 312 192 323 195 C 312 200 325 212 334 207 C 340 217 361 217 368 207 C 382 207 382 197 373 192 C 382 182 368 172 356 177 C 347 170 333 170 330 180 Z" fill="#ffffff" stroke="#000000" stroke-miterlimit="10" pointer-events="none"/><path d="M 245 85 C 231 85 227 97 238 100 C 227 105 240 117 249 112 C 255 122 276 122 283 112 C 297 112 297 102 288 97 C 297 87 283 77 271 82 C 262 75 248 75 245 85 Z" fill="#ffffff" stroke="#000000" stroke-miterlimit="10" pointer-events="none"/><path d="M 165 185 C 151 185 147 197 158 200 C 147 205 160 217 169 212 C 175 222 196 222 203 212 C 217 212 217 202 208 197 C 217 187 203 177 191 182 C 182 175 168 175 165 185 Z" fill="#ffffff" stroke="#000000" stroke-miterlimit="10" pointer-events="none"/><path d="M 295 25 C 281 25 277 37 288 40 C 277 45 290 57 299 52 C 305 62 326 62 333 52 C 347 52 347 42 338 37 C 347 27 333 17 321 22 C 312 15 298 15 295 25 Z" fill="#ffffff" stroke="#000000" stroke-miterlimit="10" pointer-events="none"/><path d="M 32 32 L 165 35" fill="none" stroke="#000000" stroke-miterlimit="10" stroke-dasharray="1 4" pointer-events="none"/><g text-anchor="middle" font-size="11px"><rect fill="#ffffff" stroke="none" x="71" y="28" width="56" height="13" stroke-width="0"/><text x="98" y="37" fill="#000000" font-family="Helvetica">user=kenn</text></g><path d="M 77 72 L 186 70" fill="none" stroke="#000000" stroke-miterlimit="10" stroke-dasharray="1 4" pointer-events="none"/><path d="M 77 72 L 152 192" fill="none" stroke="#000000" stroke-miterlimit="10" stroke-dasharray="1 4" pointer-events="none"/><path d="M 32 217 L 156 211" fill="none" stroke="#000000" stroke-miterlimit="10" stroke-dasharray="1 4" pointer-events="none"/><g text-anchor="middle" font-size="11px"><rect fill="#ffffff" stroke="none" x="63" y="208" width="63" height="13" stroke-width="0"/><text x="94" y="217" fill="#000000" font-family="Helvetica">domain=foo</text></g><path d="M 17 147 L 169 62" fill="none" stroke="#000000" stroke-miterlimit="10" stroke-dasharray="1 4" pointer-events="none"/><path d="M 208 47 L 276 33" fill="none" stroke="#000000" stroke-miterlimit="10" stroke-dasharray="3 3" pointer-events="none"/><path d="M 281 32 L 275 37 L 276 33 L 273 30 Z" fill="#000000" stroke="#000000" stroke-miterlimit="10" pointer-events="none"/><path d="M 203 62 L 239 81" fill="none" stroke="#000000" stroke-miterlimit="10" stroke-dasharray="3 3" pointer-events="none"/><path d="M 244 84 L 236 84 L 239 81 L 239 78 Z" fill="#000000" stroke="#000000" stroke-miterlimit="10" pointer-events="none"/><path d="M 191 182 L 245 117" fill="none" stroke="#000000" stroke-miterlimit="10" stroke-dasharray="3 3" pointer-events="none"/><path d="M 248 113 L 246 120 L 245 117 L 241 116 Z" fill="#000000" stroke="#000000" stroke-miterlimit="10" pointer-events="none"/><path d="M 283 112 L 336 167" fill="none" stroke="#000000" stroke-miterlimit="10" stroke-dasharray="3 3" pointer-events="none"/><path d="M 339 171 L 332 169 L 336 167 L 337 164 Z" fill="#000000" stroke="#000000" stroke-miterlimit="10" pointer-events="none"/><g text-anchor="middle" font-size="11px"><rect fill="#ffffff" stroke="none" x="275" y="131" width="74" height="25" stroke-width="0"/><text x="312" y="139" fill="#000000" font-family="Helvetica">domain=baz</text><text x="312" y="152" fill="#000000" font-family="Helvetica">team=builders</text></g><path d="M 208 197 L 317 195" fill="none" stroke="#000000" stroke-miterlimit="10" stroke-dasharray="3 3" pointer-events="none"/><path d="M 322 195 L 315 198 L 317 195 L 315 191 Z" fill="#000000" stroke="#000000" stroke-miterlimit="10" pointer-events="none"/><g text-anchor="middle" font-size="11px"><rect fill="#ffffff" stroke="none" x="240" y="190" width="53" height="13" stroke-width="0"/><text x="266" y="199" fill="#000000" font-family="Helvetica">plan=gold</text></g><path d="M 333 52 L 367 78" fill="none" stroke="#000000" stroke-miterlimit="10" stroke-dasharray="3 3" pointer-events="none"/><path d="M 371 81 L 363 80 L 367 78 L 368 74 Z" fill="#000000" stroke="#000000" stroke-miterlimit="10" pointer-events="none"/><ellipse cx="487" cy="32" rx="20" ry="20" fill="#ffffff" stroke="#000000" pointer-events="none"/><ellipse cx="487" cy="32" rx="16" ry="16" fill="none" stroke="#000000" pointer-events="none"/><ellipse cx="487" cy="87" rx="20" ry="20" fill="#ffffff" stroke="#000000" pointer-events="none"/><ellipse cx="487" cy="87" rx="16" ry="16" fill="none" stroke="#000000" pointer-events="none"/><ellipse cx="487" cy="142" rx="20" ry="20" fill="#ffffff" stroke="#000000" pointer-events="none"/><ellipse cx="487" cy="142" rx="16" ry="16" fill="none" stroke="#000000" pointer-events="none"/><ellipse cx="487" cy="197" rx="20" ry="20" fill="#ffffff" stroke="#000000" pointer-events="none"/><ellipse cx="487" cy="197" rx="16" ry="16" fill="none" stroke="#000000" pointer-events="none"/><path d="M 428 87 L 467 32" fill="none" stroke="#000000" stroke-miterlimit="10" stroke-dasharray="1 4" pointer-events="none"/><path d="M 338 37 L 467 32" fill="none" stroke="#000000" stroke-miterlimit="10" stroke-dasharray="1 4" pointer-events="none"/><g text-anchor="middle" font-size="11px"><rect fill="#ffffff" stroke="none" x="372" y="29" width="62" height="13" stroke-width="0"/><text x="403" y="38" fill="#000000" font-family="Helvetica">org=sheezy</text></g><path d="M 428 87 L 467 87" fill="none" stroke="#000000" stroke-miterlimit="10" stroke-dasharray="1 4" pointer-events="none"/><path d="M 423 102 L 467 142" fill="none" stroke="#000000" stroke-miterlimit="10" stroke-dasharray="1 4" pointer-events="none"/><path d="M 373 192 L 467 197" fill="none" stroke="#000000" stroke-miterlimit="10" stroke-dasharray="1 4" pointer-events="none"/><g text-anchor="middle" font-size="11px"><rect fill="#ffffff" stroke="none" x="398" y="189" width="46" height="13" stroke-width="0"/><text x="420" y="198" fill="#000000" font-family="Helvetica">app=wut</text></g></g></svg>