<svg xmlns="http://www.w3.org/2000/svg" width="514px" height="229px" xmlns:xlink="http://www.w3.org/1999/xlink" version="1.1"><defs/><g transform="translate(0.5,0.5)"><ellipse cx="32" cy="20" rx="7.5" ry="7.5" fill="#ffffff" stroke="#000000" pointer-events="none"/><path d="M 32 27 L 32 52 M 32 32 L 17 32 M 32 32 L 47 32 M 32 52 L 17 72 M 32 52 L 47 72" fill="none" stroke="#000000" stroke-miterlimit="10" pointer-events="none"/><ellipse cx="27" cy="90" rx="7.5" ry="7.5" fill="#ffffff" stroke="#000000" pointer-events="none"/><path d="M 27 97 L 27 122 M 27 102 L 12 102 M 27 102 L 42 102 M 27 122 L 12 142 M 27 122 L 42 142" fill="none" stroke="#000000" stroke-miterlimit="10" pointer-events="none"/><ellipse cx="72" cy="50" rx="7.5" ry="7.5" fill="#ffffff" stroke="#000000" pointer-events="none"/><path d="M 72 57 L 72 82 M 72 62 L 57 62 M 72 62 L 87 62 M 72 82 L 57 102 M 72 82 L 87 102" fill="none" stroke="#000000" stroke-miterlimit="10" pointer-events="none"/><ellipse cx="67" cy="130" rx="7.5" ry="7.5" fill="#ffffff" stroke="#000000" pointer-events="none"/><path d="M 67 137 L 67 162 M 67 142 L 52 142 M 67 142 L 82 142 M 67 162 L 52 182 M 67 162 L 82 182" fill="none" stroke="#000000" stroke-miterlimit="10" pointer-events="none"/><path d="M 160 35 C 146 35 142 47 153 50 C 142 55 155 67 164 62 C 170 72 191 72 198 62 C 212 62 212 52 203 47 C 212 37 198 27 186 32 C 177 25 163 25 160 35 Z" fill="#ffffff" stroke="#000000" stroke-miterlimit="10" pointer-events="none"/><path d="M 380 75 C 366 75 362 87 373 90 C 362 95 375 107 384 102 C 390 112 411 112 418 102 C 432 102 432 92 423 87 C 432 77 418 67 406 72 C 397 65 383 65 380 75 Z" fill="#ffffff" stroke="#000000" stroke-miterlimit="10" pointer-events="none"/><path d="M 325 140 C 311 140 307 152 318 155 C 307 160 320 172 329 167 C 335 177 356 177 363 167 C 377 167 377 157 368 152 C 377 142 363 132 351 137 C 342 130 328 130 325 140 Z" fill="#ffffff" stroke="#000000" stroke-miterlimit="10" pointer-events="none"/><path d="M 240 85 C 226 85 222 97 233 100 C 222 105 235 117 244 112 C 250 122 271 122 278 112 C 292 112 292 102 283 97 C 292 87 278 77 266 82 C 257 75 243 75 240 85 Z" fill="#ffffff" stroke="#000000" stroke-miterlimit="10" pointer-events="none"/><path d="M 175 140 C 161 140 157 152 168 155 C 157 160 170 172 179 167 C 185 177 206 177 213 167 C 227 167 227 157 218 152 C 227 142 213 132 201 137 C 192 130 178 130 175 140 Z" fill="#ffffff" stroke="#000000" stroke-miterlimit="10" pointer-events="none"/><path d="M 290 25 C 276 25 272 37 283 40 C 272 45 285 57 294 52 C 300 62 321 62 328 52 C 342 52 342 42 333 37 C 342 27 328 17 316 22 C 307 15 293 15 290 25 Z" fill="#ffffff" stroke="#000000" stroke-miterlimit="10" pointer-events="none"/><path d="M 32 42 L 160 35" fill="none" stroke="#000000" stroke-miterlimit="10" stroke-dasharray="1 4" pointer-events="none"/><path d="M 72 72 L 181 70" fill="none" stroke="#000000" stroke-miterlimit="10" stroke-dasharray="1 4" pointer-events="none"/><path d="M 72 72 L 162 147" fill="none" stroke="#000000" stroke-miterlimit="10" stroke-dasharray="1 4" pointer-events="none"/><path d="M 27 112 L 166 166" fill="none" stroke="#000000" stroke-miterlimit="10" stroke-dasharray="1 4" pointer-events="none"/><path d="M 67 152 L 164 62" fill="none" stroke="#000000" stroke-miterlimit="10" stroke-dasharray="1 4" pointer-events="none"/><path d="M 203 47 L 271 33" fill="none" stroke="#000000" stroke-miterlimit="10" stroke-dasharray="3 3" pointer-events="none"/><path d="M 276 32 L 270 37 L 271 33 L 268 30 Z" fill="#000000" stroke="#000000" stroke-miterlimit="10" pointer-events="none"/><path d="M 198 62 L 234 81" fill="none" stroke="#000000" stroke-miterlimit="10" stroke-dasharray="3 3" pointer-events="none"/><path d="M 239 84 L 231 84 L 234 81 L 234 78 Z" fill="#000000" stroke="#000000" stroke-miterlimit="10" pointer-events="none"/><path d="M 201 137 L 238 115" fill="none" stroke="#000000" stroke-miterlimit="10" stroke-dasharray="3 3" pointer-events="none"/><path d="M 243 113 L 238 119 L 238 115 L 235 113 Z" fill="#000000" stroke="#000000" stroke-miterlimit="10" pointer-events="none"/><path d="M 278 112 L 329 130" fill="none" stroke="#000000" stroke-miterlimit="10" stroke-dasharray="3 3" pointer-events="none"/><path d="M 334 132 L 326 133 L 329 130 L 328 126 Z" fill="#000000" stroke="#000000" stroke-miterlimit="10" pointer-events="none"/><path d="M 218 152 L 312 154" fill="none" stroke="#000000" stroke-miterlimit="10" stroke-dasharray="3 3" pointer-events="none"/><path d="M 317 154 L 310 158 L 312 154 L 310 151 Z" fill="#000000" stroke="#000000" stroke-miterlimit="10" pointer-events="none"/><path d="M 328 52 L 362 78" fill="none" stroke="#000000" stroke-miterlimit="10" stroke-dasharray="3 3" pointer-events="none"/><path d="M 366 81 L 358 80 L 362 78 L 363 74 Z" fill="#000000" stroke="#000000" stroke-miterlimit="10" pointer-events="none"/><ellipse cx="482" cy="32" rx="20" ry="20" fill="#ffffff" stroke="#000000" pointer-events="none"/><ellipse cx="482" cy="32" rx="16" ry="16" fill="none" stroke="#000000" pointer-events="none"/><ellipse cx="482" cy="87" rx="20" ry="20" fill="#ffffff" stroke="#000000" pointer-events="none"/><ellipse cx="482" cy="87" rx="16" ry="16" fill="none" stroke="#000000" pointer-events="none"/><ellipse cx="482" cy="142" rx="20" ry="20" fill="#ffffff" stroke="#000000" pointer-events="none"/><ellipse cx="482" cy="142" rx="16" ry="16" fill="none" stroke="#000000" pointer-events="none"/><ellipse cx="482" cy="197" rx="20" ry="20" fill="#ffffff" stroke="#000000" pointer-events="none"/><ellipse cx="482" cy="197" rx="16" ry="16" fill="none" stroke="#000000" pointer-events="none"/><path d="M 423 87 L 462 32" fill="none" stroke="#000000" stroke-miterlimit="10" stroke-dasharray="1 4" pointer-events="none"/><path d="M 333 37 L 462 32" fill="none" stroke="#000000" stroke-miterlimit="10" stroke-dasharray="1 4" pointer-events="none"/><path d="M 423 87 L 462 87" fill="none" stroke="#000000" stroke-miterlimit="10" stroke-dasharray="1 4" pointer-events="none"/><path d="M 418 102 L 462 142" fill="none" stroke="#000000" stroke-miterlimit="10" stroke-dasharray="1 4" pointer-events="none"/><path d="M 368 152 L 462 197" fill="none" stroke="#000000" stroke-miterlimit="10" stroke-dasharray="1 4" pointer-events="none"/></g></svg>