<svg xmlns="http://www.w3.org/2000/svg" width="394px" height="284px" xmlns:xlink="http://www.w3.org/1999/xlink" version="1.1"><defs/><g transform="translate(0.5,0.5)"><path d="M 342 125 C 330 125 327 137 337 140 C 327 145 338 157 346 152 C 351 162 369 162 375 152 C 387 152 387 142 380 137 C 387 127 375 117 365 122 C 357 115 345 115 342 125 Z" fill="#ffffff" stroke="#000000" stroke-miterlimit="10" pointer-events="none"/><ellipse cx="17" cy="10" rx="7.5" ry="7.5" fill="#ffffff" stroke="#000000" pointer-events="none"/><path d="M 17 17 L 17 42 M 17 22 L 2 22 M 17 22 L 32 22 M 17 42 L 2 62 M 17 42 L 32 62" fill="none" stroke="#000000" stroke-miterlimit="10" pointer-events="none"/><ellipse cx="17" cy="170" rx="7.5" ry="7.5" fill="#ffffff" stroke="#000000" pointer-events="none"/><path d="M 17 177 L 17 202 M 17 182 L 2 182 M 17 182 L 32 182 M 17 202 L 2 222 M 17 202 L 32 222" fill="none" stroke="#000000" stroke-miterlimit="10" pointer-events="none"/><ellipse cx="67" cy="50" rx="7.5" ry="7.5" fill="#ffffff" stroke="#000000" pointer-events="none"/><path d="M 67 57 L 67 82 M 67 62 L 52 62 M 67 62 L 82 62 M 67 82 L 52 102 M 67 82 L 82 102" fill="none" stroke="#000000" stroke-miterlimit="10" pointer-events="none"/><ellipse cx="57" cy="120" rx="7.5" ry="7.5" fill="#ffffff" stroke="#000000" pointer-events="none"/><path d="M 57 127 L 57 152 M 57 132 L 42 132 M 57 132 L 72 132 M 57 152 L 42 172 M 57 152 L 72 172" fill="none" stroke="#000000" stroke-miterlimit="10" pointer-events="none"/><path d="M 340 55 C 326 55 322 67 333 70 C 322 75 335 87 344 82 C 350 92 371 92 378 82 C 392 82 392 72 383 67 C 392 57 378 47 366 52 C 357 45 343 45 340 55 Z" fill="#ffffff" stroke="#000000" stroke-miterlimit="10" pointer-events="none"/><path d="M 262 20 C 246 20 242 32 255 35 C 242 40 256 52 267 47 C 274 57 298 57 306 47 C 322 47 322 37 312 32 C 322 22 306 12 292 17 C 282 10 266 10 262 20 Z" fill="#ffffff" stroke="#000000" stroke-miterlimit="10" pointer-events="none"/><ellipse cx="167" cy="267" rx="15" ry="15" fill="#ffffff" stroke="#000000" pointer-events="none"/><ellipse cx="167" cy="267" rx="11" ry="11" fill="none" stroke="#000000" pointer-events="none"/><ellipse cx="107" cy="267" rx="15" ry="15" fill="#ffffff" stroke="#000000" pointer-events="none"/><ellipse cx="107" cy="267" rx="11" ry="11" fill="none" stroke="#000000" pointer-events="none"/><ellipse cx="227" cy="267" rx="15" ry="15" fill="#ffffff" stroke="#000000" pointer-events="none"/><ellipse cx="227" cy="267" rx="11" ry="11" fill="none" stroke="#000000" pointer-events="none"/><ellipse cx="287" cy="267" rx="15" ry="15" fill="#ffffff" stroke="#000000" pointer-events="none"/><ellipse cx="287" cy="267" rx="11" ry="11" fill="none" stroke="#000000" pointer-events="none"/><path d="M 75 48 L 267 47" fill="none" stroke="#000000" stroke-miterlimit="10" stroke-dasharray="3 3" pointer-events="none"/><path d="M 67 72 L 160 254" fill="none" stroke="#000000" stroke-miterlimit="10" stroke-dasharray="3 3" pointer-events="none"/><path d="M 57 142 L 101 253" fill="none" stroke="#000000" stroke-miterlimit="10" stroke-dasharray="3 3" pointer-events="none"/><path d="M 25 8 L 255 35" fill="none" stroke="#000000" stroke-miterlimit="10" stroke-dasharray="3 3" pointer-events="none"/><path d="M 25 8 L 331 132" fill="none" stroke="#000000" stroke-miterlimit="10" stroke-dasharray="3 3" pointer-events="none"/><path d="M 67 72 L 276 257" fill="none" stroke="#000000" stroke-miterlimit="10" stroke-dasharray="3 3" pointer-events="none"/><path d="M 67 72 L 217 255" fill="none" stroke="#000000" stroke-miterlimit="10" stroke-dasharray="3 3" pointer-events="none"/><path d="M 295 255 L 360 160" fill="none" stroke="#000000" stroke-miterlimit="10" stroke-dasharray="3 3" pointer-events="none"/><path d="M 180 260 L 360 160" fill="none" stroke="#000000" stroke-miterlimit="10" stroke-dasharray="3 3" pointer-events="none"/><path d="M 235 254 L 344 82" fill="none" stroke="#000000" stroke-miterlimit="10" stroke-dasharray="3 3" pointer-events="none"/><path d="M 119 258 L 334 86" fill="none" stroke="#000000" stroke-miterlimit="10" stroke-dasharray="3 3" pointer-events="none"/></g></svg>